<svg id="Layer_1" data-name="Layer 1" xmlns="http://www.w3.org/2000/svg" viewBox="0 0 512 512"><path d="M334,275c.25,5.28,4.08,9.2,10.88,10.41,14.14,2.51,26.29-5.3,31.39-20.35,4-11.91,8.08-23.82,11.7-35.86.52-1.71-.89-5.6-2.18-6-15.72-4.86-31.09-11.4-48.05-10.8-10,.36-11,1.49-12,11.43-2.75,27.55-28.41,54.83-57,51.66-1.89-.22-4.88,1.92-6,3.78-5.38,8.63-9.48,18.16-15.57,26.21-8.81,11.68-23.26,14.92-34.28,9.23-8.66-4.47-9.63-8.06-4.5-16.06,3.74-5.85,7.35-11.78,10.13-16.25,5.89.95,11.61,3.64,15.67,2.06,4.68-1.81,9.24-6.76,11.49-11.48,5.49-11.52,9.54-23.72,14.33-35.59,4.59-11.39,10.19-22.24,20.25-29.82,3.16-2.39,7.3-3.55,11.12-4.95.72-.27,2.31.8,2.9,1.66.33.46-.35,2.29-1,2.67-8.9,5-11.09,14.11-14,22.71-3.41,10.07-6.4,20.28-9.9,30.32-1.74,5,.44,6,4.57,5.42a23.88,23.88,0,0,0,5.59-1.71c18.63-7.38,33.83-36.69,27-53.81A27.06,27.06,0,0,0,294.78,197c-19-9.8-47.47,2.12-54.82,22.29-2.75,7.53-3.28,14.82,4,20.71,1,.82,1.17,4.11.4,5.51-4.2,7.6-8.58,15.13-13.49,22.28-1.09,1.57-5,2.64-6.88,2-7.44-2.52-11.37-8.48-12.7-16-2.9-16.29,1.72-30.53,12.49-42.86,18-20.58,55.65-30.56,80.83-20.26,7.6,3.11,13.73,9.81,21.07,15.27,15.08-11.65,31.74-7.12,48.39.38,5.9,2.65,11.71,5.51,18.72,8.82,1.74-6.27,3.25-11.74,4.82-17.43l22.49-2.2c-3.06,6.52-6.11,13-9.11,19.45-2.31,5,0,7.15,4.81,6.8,8.57-.61,17.11-1.64,26.1-2.54.57,4.22-3,6.87-6.82,7.6a160.58,160.58,0,0,1-23.77,2.57c-4.19.16-6.3,1.32-7.5,5.38-3.68,12.48-7.94,24.79-11.41,37.32-1.26,4.55-3.06,10.27,2.89,13.32,4.17,2.14,11.09-2.76,13.2-9.07,1.78-5.35,2.65-11.08,4.94-16.18,5.88-13.06,13.78-24.29,29.29-27.07,13.24-2.36,22.08,7.74,17.83,20.57a40.16,40.16,0,0,1-4.84,9.86c-7.1,10.44-16.87,13.85-28.55,10.37-1.06,5.82,2,10.66,8.56,11.56,5.41.74,11,.15,18.69.15-6.68,8.61-12.05,15.82-17.83,22.69-.81,1-3.72.67-5.46.21-9.73-2.6-17.31-7.88-21-17.75a24.86,24.86,0,0,0-2.27-3.55,55.47,55.47,0,0,1-4.43,5.87c-3.34,3.35-6.47,7.2-10.44,9.57-10,6-18.29,2.52-21.83-8.48-.6-1.86-1.18-3.72-2.09-6.61-2.85,3-5.19,5.66-7.66,8.15C351.82,305.43,339.3,308,327.4,303c-6.51-2.73-10.33-7.82-11.13-14.23-2.58-20.55,4.22-37.82,20.77-50.44,4.06-3.1,9.83-4.71,15-5.4,10.36-1.37,17.57,6.54,16,16.91-1.88,12.58-9.36,20.94-21.08,25C343.28,276.13,338.71,275,334,275ZM450.5,245.56c-.13-4.31-4.17-6.37-7.86-2.89-5.1,4.79-9.12,10.8-13.17,16.59-1,1.4-1.1,5-.14,5.78,1.49,1.23,4.41,1.61,6.44,1.13C442.67,264.53,450.73,252.89,450.5,245.56Zm-93.19-.7c-.17-.37-.62-2.65-1.37-2.76-2.21-.31-5.51-.66-6.66.6a157.37,157.37,0,0,0-13.11,16.63c-1,1.42-1.07,5.08-.1,5.86,1.5,1.19,4.45,1.44,6.48.92C348.76,264.53,356.84,253.07,357.31,244.86Z"/><path d="M92.45,264.93c-13.18,4.1-17.84,10-17.16,21.4a15.39,15.39,0,0,0,19.16,14.24,24.12,24.12,0,0,0,18.26-28.32c-2-10.55-5.87-20.8-9.51-31-3.33-9.3-6.06-18.4-4.45-28.55,3.06-19.26,19.82-25.58,33.87-23.89,3.66.43,7.21,1.9,10.86,2.17,4.63.34,9.32,0,14-.14,2-.05,4-.2,7.89-.4-3.94,5.66-7,9.73-9.69,14-2.88,4.59-5.08,9.65-8.28,14-1.49,2-4.63,2.83-7,4.19-.65-2.17-1.63-4.3-1.86-6.52s.45-4.76.38-7.14c-.16-5.83-2.49-10.14-8.84-11-6.16-.85-12.21,2.13-13.06,8.09a42.49,42.49,0,0,0,1.28,18.3c3.07,9.67,8.6,18.58,11.54,28.28,6,19.77,5.12,39.26-7.27,56.72-13.37,18.87-46.43,21.19-61.94,4.76C43.66,296.22,52.28,265.55,76,259.31,83.71,257.28,88.86,258.93,92.45,264.93Z"/><path d="M398.49,157.66c-1.16,5.79-3.4,8.86-9.51,8.86q-129.63-.18-259.25,0c-6,0-7.81-3.13-8.33-8.84Z"/><path d="M398.67,346.49H121.46c.57-6.55,3.87-8.41,9.57-8.38,32,.15,64,.06,96.05.06,53.36,0,106.72.07,160.07-.1C392.88,338.05,396.9,339.36,398.67,346.49Z"/><path d="M177.68,286.37c-5.3,7.07-10.17,13.94-15.55,20.39-1,1.19-4.37,1.43-6.14.77-9.11-3.38-15.27-13.58-13.33-24.31,2.18-12.1,5.92-23.91,9-35.85.2-.8.42-1.59.82-3.12H144.1c-1.48-6.73.28-9.66,6.57-9.85,4.6-.15,6.39-1.89,7.47-6.21,2.44-9.79,5.44-19.45,8.38-29.1a3.93,3.93,0,0,1,2.6-2.39c7.24-.51,14.51-.75,22.75-1.12-11.38,11.23-12.64,26.25-18.54,40.39h10.23c2.11,6.35-.33,10.28-7.1,9.9-5.65-.31-7.91,2-8.92,7-.82,4-2.14,7.95-3.06,12-2.32,10.11.12,15.06,9.33,19.34C174.93,284.7,176,285.4,177.68,286.37Z"/><path d="M172.37,126.89l-22.91,14.42-4.55-5.79c8.56-4.4,4.62-9.17,1.1-14.25-3.34-4.82-6.29-9.92-9.24-15-1.8-3.09-3.79-4.3-7.5-2.88-1.32.51-4-.55-5-1.77-.61-.75.27-3.9,1.39-4.67a162.43,162.43,0,0,1,17.78-10.86c1.54-.78,4.39,1,8.41,2-6.54,5-5.26,8.6-2.13,12.79,3.37,4.5,5.77,9.71,8.92,14.39,2.22,3.28,3.35,8.61,9.7,5.89,1.08-.46,3.4,2,5.15,3Z"/><path d="M118.09,399.88c4.76,4.52,8,2.69,11.14-1.95,3.9-5.74,8.58-11,12.29-16.8,1.11-1.74.1-4.84,0-7.32-.07-1.87-.21-3.73-.31-5.6,1.86-.08,4.28-.95,5.49-.1,6.92,4.84,13.55,10.09,20.34,15.25-1.52,3.95-3.13,6-7.81,4.32-1.74-.64-5.32,1-6.74,2.73-5.82,7-11.15,14.43-16.63,21.71-5.21,6.93-5.19,6.93-12.3,1.49a67.91,67.91,0,0,0-5.76-4.26C113.15,406.46,113.34,403.54,118.09,399.88Z"/><path d="M376.85,424.53l-4.92-5.43c6.89-5.28,4.43-9.26.34-13.47-4.38-4.51-8.33-9.43-12.51-14.14-2.22-2.5-4.26-5-8.07-1.78-.86.72-3.94-.25-5.21-1.36-.66-.57-.17-3.75.81-4.69,5.34-5.08,10.87-10,16.64-14.55,1.16-.92,3.68-.12,5.57-.12,0,1.87.72,4.43-.22,5.48-2.67,3-1.43,5,.6,7.28,6.72,7.67,13.27,15.49,20.17,23,3,3.22,3.57,5.44-.27,8.38C385.7,416.25,382,419.92,376.85,424.53Z"/><path d="M362.79,133.26l-4.42,5.85c-7.21-5.53-14.42-10.69-21.07-16.49-1.21-1.05-.18-4.67-.18-9.08,7.35,6.2,10.93,3.74,14.34-1.33,3.62-5.37,8.18-10.13,11.67-15.58,1.13-1.78.2-4.88.21-7.37l.06-6c1.9.18,3.94,0,5.66.66,1.53.59,2.69,2.14,4.05,3.21,9.52,7.5,9.5,7.47,1.83,17.31-4.4,5.64-8.43,11.59-13.16,16.93C357.94,125.71,356.74,129.32,362.79,133.26Z"/><path d="M288.27,53l20.09,5.67c-4.16,15.24-7.93,29.66-12.27,43.9-.44,1.47-4.82,3.2-6.52,2.55-5.11-1.94-12.28,0-14.81-6.9-.24-.67,2.7-3.64,3.8-3.45,4.54.77,5.78-1.91,6.76-5.24,2.08-7.07,4.24-14.12,6.15-21.23.79-3,1.1-5.76-2.83-7.58-1.43-.66-1.64-4-2.4-6.08Z"/><path d="M231.45,100.2c.71,2.87-1.7,4.85-6.67,5-3.67.13-7.34,1.08-11,1-1.48,0-3.76-1.55-4.13-2.83s1.22-3.92,2.38-4.21c4.33-1.09,4.66-3.9,4.22-7.42-.92-7.32-1.45-14.72-3-21.92-.46-2.18-3.64-3.78-5.52-5.69-1.29-1.3-2.5-2.68-3.74-4,1.41-1.21,2.8-2.45,4.26-3.6.28-.22.84-.08,1.28-.12,4.9-.43,11.3-2.91,14.28-.72s2.48,9,3.23,13.83C228.54,79,229.79,88.43,231.45,100.2Z"/><path d="M237.94,436c.15-13.5,7.44-23.1,19.13-24.75,1.69-.24,5.07.94,5.12,1.65.16,2-.35,4.92-1.75,6.12-11.47,9.81-11,25.3,1.05,34.78,1.47,1.16,2.19,4.05,2.08,6.07-.05.78-3.46,2.15-5.19,1.95C245.89,460.26,237.79,449.85,237.94,436Z"/><path d="M188.82,450.5c-11.37-4.18-17.93-15.24-15.55-26.1,3.36-15.34,13.39-24.68,25.88-23.61,2.48.21,4.83,2.07,7.24,3.17-1.9,2-3.45,4.83-5.76,5.71-10.82,4.11-17.41,22.57-10.73,32C192.58,445.44,191.85,447.9,188.82,450.5Z"/><path d="M192.77,450.47c2-1.77,3.8-4.26,6.17-5.19,11.33-4.47,17.36-21.51,11.48-32.35-1.1-2-.4-5.05-.53-7.61,2.36.49,5.11.37,7,1.58,10.34,6.56,12.82,20.14,6.48,33.76C218.35,451.46,206.68,456.2,192.77,450.47Z"/><path d="M318.42,426.84c5.9-2.37,9.77-3,10.64,3.4-2.68,1.19-5.44,2-7.67,3.57a6.28,6.28,0,0,0-2.32,4.58c0,.92,2.21,1.93,3.52,2.72,1.91,1.16,3.92,2.16,5.88,3.23-1.7,1.72-3.11,4.06-5.17,5.05-5,2.43-10.38,4.25-15.81,6.4-2.67-3.09-5.39-5.76-.11-8.79a3.87,3.87,0,0,0,1.62-2.72c.56-10.18,1.23-20.37,1.13-30.55,0-1.22-4.38-2.4-6.73-3.61l-1.13,1.56c-.78-1.92-1.57-3.84-2.67-6.52l18.82-7.68Z"/><path d="M324,397.41c6.31,6.79,12.31,13.9,19,20.26,4.58,4.33,7.47,11.62,15.9,10.67.85-.1,2.54,2.43,2.83,3.94.18.91-1.35,2.75-2.5,3.24-6.78,2.86-13.61,5.61-20.57,8-1.35.46-4.13-.51-4.82-1.67s-.1-4.28.94-4.94c3.74-2.37,2.45-4.42.34-6.8s-3.74-4.86-6-6.81c-7.75-6.59-8.13-15.17-7.24-24.19Z"/><path d="M399.51,116.18a15,15,0,0,1-20.41,14,41.3,41.3,0,0,1-9.6-5.37c-1.31-1-1.56-3.38-2.29-5.13,2-.53,4.63-2.14,5.9-1.4,6.13,3.52,9.91.35,12.08-4.47,1-2.2-1-5.7-1.49-8.63-.33-2-.37-4.08-.54-6.12,2.06.18,4.59-.35,6.1.65C396.1,104.29,399.57,110.26,399.51,116.18Z"/><path d="M174.64,125.49c-.38-3.57-.44-6.13-1-8.59a6.7,6.7,0,0,0-2.17-3.89,56.66,56.66,0,0,0-7.15-3.63,7.88,7.88,0,0,1-.26-1.83c1.91-11.24,2.14-11.28,12.56-7.13,5.69,2.26,11,6.39,17.92,3.75.93-.36,3.66,1.64,4.09,3s-.7,3.86-1.92,4.68C190.07,116.25,183.16,120.29,174.64,125.49Z"/><path d="M157.25,90.39c-2.74-2.62-5.78-4.27-6.38-6.56-.36-1.37,2.82-4.15,4.9-5.58,4.77-3.31,9.85-6.18,15.24-9.49,1.52,2.22,2.67,3.91,4,5.84-11.66,8.35-9.7,22.45-15.3,33.2C154.07,104.8,154.07,104.8,157.25,90.39Z"/><path d="M199.47,290.29c0,7.42-6.42,14.62-13,14.64-4.89,0-7.93-3.55-7.81-9.15.15-7.4,6.7-14.86,13-14.82C196.25,281,199.5,284.88,199.47,290.29Z"/><path d="M323.06,114.91C316,113,310,111.42,304,109.63c-2.9-.86-6.49-2-4.56-6,.57-1.19,4-1.27,6.14-1.36a13.38,13.38,0,0,1,5.05,1.07c4.55,1.74,7,.07,8-4.48.22-1,.47-2.47,1.2-2.93,1.75-1.1,3.88-2.49,5.68-2.27,1,.12,2.66,3.39,2.34,4.87C326.67,104,324.79,109.21,323.06,114.91Z"/><path d="M312.51,59.65l24,7.06c-1.41,5.82-2.17,11-4.09,15.7-.68,1.67-4.2,2.19-6.42,3.24-.66-1.94-2.19-4.06-1.82-5.78,1.7-8.08,1.39-9-7-11C312.56,67.78,308.44,66.61,312.51,59.65Z"/><path d="M234.79,96.19c2-.29,3.63-.6,5.31-.78,9.74-1,9.68-1.21,10.37-10.69.13-1.83,2.68-3.49,4.12-5.22,1.35,1.26,3.44,2.29,3.94,3.83,4.48,13.93,3.12,16.14-11,18.7-2.34.43-4.73.56-7.09.92C235.7,103.67,234.13,101.41,234.79,96.19Z"/><path d="M256.86,70.47c-5.36,2.07-9.17,2.76-9.25-4.77-.06-5.22-3.42-7.09-8.51-5.94-2.33.52-4.75,1.2-7,1a4.62,4.62,0,0,1-3.16-3.13c-.18-1.14,1.24-3.52,2.25-3.7a182.12,182.12,0,0,1,20-2.58c1.26-.09,3.58,2.27,3.89,3.8C256,60,256.26,65,256.86,70.47Z"/><path d="M394.19,381.65c3.41-5.59,6.64-5.68,10.4-.58,2.65,3.61,5.83,6.83,9.25,10.77-5.16,4.58-9.8,9.06-14.82,13.06-4.41,3.51-5.14-1.24-7-3.36C401.07,391.56,401.07,391.56,394.19,381.65Z"/><path d="M164.21,418.43c-3.26,4.48-6.22,9-9.71,13.07-1,1.11-4.12,1.79-5.22,1.07-5.39-3.5-10.43-7.54-15.57-11.37,2.28-5.76,5.3-6.28,9.39-2.54,3.77,3.46,7.51,4.44,10.68-.73C157,412.6,160.3,413.2,164.21,418.43Z"/><path d="M285.32,421.6a5.13,5.13,0,0,1,0,1.3c-.77,2.8-.83,7.33-2.51,8-4.56,1.94-4.86-2.68-6.52-5.65-1.45-2.61-4.73-4.13-6.77-6.5-1.34-1.56-1.9-3.78-2.81-5.7a44.26,44.26,0,0,1,5.19-.87c1.75-.1,3.77.75,5.26.15,6.35-2.52,7.64-1.9,8,4.7.08,1.51,0,3,0,4.53Z"/><path d="M268.26,461.2c-1.53-4-.77-6.09,2.88-8.2,2.63-1.51,5.43-4.88,5.79-7.72.73-5.65,4.48-5.06,7.4-4.06,1.38.47,2.61,4.56,2.18,6.64C285,455.26,277.49,460.5,268.26,461.2Z"/><path d="M306.49,94.71c.11-1.57.76-3.22.19-4.06-4.77-7.07.17-10.92,4.83-14.71,1.06-.87,3.49-1.53,4.27-.94a5.61,5.61,0,0,1,2,4.52c-.78,4-2.62,7.81-3.37,11.82C313.51,96.16,311.15,96.88,306.49,94.71Z"/><path d="M243.83,82.33c-.49,1.36-1.28,3.56-2.06,5.76a72.76,72.76,0,0,0-6-4.46c-7.72-4.69-3-10.06-.76-15.15a4.21,4.21,0,0,1,3.43-2,4.28,4.28,0,0,1,3,2.54C242.48,73,243,77.11,243.83,82.33Z"/><path d="M256,487.77A231.78,231.78,0,0,1,92.11,92.11,231.78,231.78,0,0,1,419.89,419.89,230.29,230.29,0,0,1,256,487.77ZM256,34A222,222,0,0,0,99.05,413,222,222,0,0,0,413,99.05,220.51,220.51,0,0,0,256,34Z"/><path d="M256,512A256,256,0,0,1,75,75,256,256,0,0,1,437,437,254.33,254.33,0,0,1,256,512ZM256,9.81A246.19,246.19,0,0,0,81.92,430.08,246.19,246.19,0,1,0,430.08,81.92,244.57,244.57,0,0,0,256,9.81Z"/></svg>