<?xml version="1.0" encoding="UTF-8"?>
<svg id="Layer_1" data-name="Layer 1" xmlns="http://www.w3.org/2000/svg" viewBox="0 0 490 425.76">
  <g id="freepik--Ribbon--inject-65">
    <path d="m490,91.56c-159.24,51.73-330.76,51.73-490,0C9.91,61.04,19.82,30.52,29.74,0c139.91,45.46,290.61,45.46,430.52,0,9.92,30.52,19.83,61.04,29.74,91.56Z" fill="#2196f3"/>
    <path d="m105.35,48.56l7.51,1.47c.77,4.67,1.57,9.35,2.39,14.04,2.4-4.1,4.77-8.22,7.11-12.36,2.52.44,5.05.86,7.59,1.28-3.37,5.66-6.79,11.31-10.26,16.95,1.1,4.56,2.24,9.12,3.4,13.68,5.86-9.67,11.54-19.4,17.02-29.18,2.93.44,5.91.86,8.94,1.25-7.53,12.6-15.38,25.08-23.53,37.44-2.43-.38-4.85-.78-7.33-1.19-1.64-6.01-3.22-12.02-4.72-18.04-3.5,5.13-7.06,10.23-10.69,15.3-2.42-.45-4.82-.92-7.24-1.47-3.32-14.42-6.32-28.83-9-43.23,2.93.65,5.84,1.29,8.72,1.91,1.81,11.09,3.79,22.19,5.95,33.29,2.64-3.91,5.24-7.82,7.8-11.73-1.27-6.45-2.49-12.91-3.66-19.39Z" fill="#fff"/>
    <path d="m179.93,92.79c-.21,2.29-.4,4.57-.6,6.87-10.38-.89-20.74-2-31.08-3.33,1.71-13.37,3.42-26.74,5.12-40.12,9.64,1.23,19.28,2.26,28.92,3.09-.21,2.29-.4,4.59-.6,6.87-6.96-.62-13.92-1.32-20.87-2.13-.38,3.22-.75,6.45-1.13,9.67,6.1.71,12.19,1.34,18.28,1.89l-.57,6.36c-6.16-.56-12.3-1.19-18.44-1.91-.4,3.49-.81,6.98-1.2,10.47,7.35.85,14.74,1.6,22.18,2.24Z" fill="#fff"/>
    <path d="m186.16,100.22c1.04-13.46,2.07-26.9,3.11-40.34,2.76.22,5.51.41,8.27.6l-2.2,33.45c7.56.5,15.13.88,22.71,1.14-.09,2.3-.16,4.59-.25,6.89-10.55-.34-21.1-.92-31.63-1.74Z" fill="#fff"/>
    <path d="m218.28,81.49c.09-2.53.67-5.02,1.7-7.33,1.05-2.37,2.54-4.52,4.4-6.33,1.96-1.88,4.25-3.37,6.76-4.4,2.82-1.16,5.86-1.73,8.91-1.66,3.54-.07,7.05.78,10.17,2.45,2.71,1.43,4.97,3.6,6.51,6.26-2.13,1.47-4.25,2.83-6.41,4.24-.52-1.09-1.22-2.08-2.08-2.93-.77-.74-1.65-1.37-2.61-1.85-.93-.45-1.92-.79-2.93-1.01-.97-.2-1.95-.31-2.93-.32-1.9-.06-3.78.33-5.5,1.14-1.52.76-2.86,1.84-3.93,3.17-1.08,1.26-1.91,2.71-2.45,4.28-.56,1.54-.87,3.16-.92,4.79-.04,1.76.23,3.51.82,5.17,1.11,3.29,3.5,5.99,6.63,7.51,1.65.79,3.46,1.2,5.29,1.19,1.05,0,2.1-.11,3.14-.32,1.08-.23,2.12-.59,3.11-1.08.97-.52,1.86-1.19,2.64-1.98.85-.8,1.53-1.76,1.99-2.83,2.35,1.22,4.72,2.42,7.09,3.62-.69,1.54-1.68,2.92-2.93,4.06-1.32,1.18-2.8,2.16-4.4,2.93-1.7.82-3.49,1.44-5.34,1.85-1.83.41-3.71.61-5.58.6-3.04.01-6.04-.65-8.8-1.93-2.54-1.2-4.82-2.87-6.73-4.93-1.83-1.97-3.27-4.28-4.24-6.79-.97-2.4-1.44-4.97-1.39-7.56Z" fill="#fff"/>
    <path d="m282.47,101.85c-3.07.19-6.14-.27-9.01-1.35-2.61-.99-5-2.48-7.02-4.4-1.94-1.84-3.5-4.04-4.59-6.48-2.18-4.86-2.27-10.39-.25-15.32,3.17-7.83,10.62-13.08,19.06-13.46,2.91-.18,5.82.28,8.53,1.33,5.02,1.97,9.12,5.73,11.52,10.55,1.18,2.28,1.89,4.77,2.11,7.33.21,2.65-.13,5.31-1.01,7.81-.88,2.53-2.25,4.86-4.03,6.86-1.86,2.07-4.12,3.75-6.63,4.95-2.72,1.29-5.67,2.03-8.68,2.15Zm-13.71-19.96c.06,1.72.41,3.42,1.04,5.03.61,1.57,1.51,3.02,2.67,4.25,2.52,2.63,6.08,4,9.72,3.74,3.69-.08,7.14-1.84,9.37-4.79,1.02-1.35,1.77-2.88,2.21-4.51.45-1.62.62-3.3.51-4.97-.11-1.73-.53-3.42-1.23-5-.67-1.54-1.61-2.95-2.77-4.16-1.17-1.19-2.57-2.13-4.12-2.76-1.68-.66-3.49-.94-5.29-.84-1.87.07-3.69.57-5.34,1.47-1.49.79-2.8,1.89-3.83,3.22-1.02,1.32-1.79,2.81-2.27,4.4-.49,1.59-.72,3.26-.67,4.93Z" fill="#fff"/>
    <path d="m347.61,95.57l-3.59-26.56c-2.81,7.09-5.75,14.17-8.8,21.23l-4.68.54c-4.56-6.17-9.03-12.38-13.4-18.63.88,8.88,1.75,17.77,2.62,26.65-2.93.28-5.86.56-8.8.81-1.15-13.43-2.32-26.86-3.49-40.3,2.93-.26,5.86-.53,8.8-.82,4.94,7.21,10.01,14.38,15.2,21.5,3.48-8.12,6.81-16.27,9.98-24.45,2.93-.4,5.86-.81,8.8-1.23l5.86,40.02c-2.65.44-5.58.85-8.52,1.25Z" fill="#fff"/>
    <path d="m395.06,80.59l1.36,6.76c-10.25,2.06-20.54,3.92-30.86,5.57-2.11-13.31-4.23-26.62-6.36-39.94,9.59-1.52,19.15-3.25,28.69-5.17l1.36,6.76c-6.89,1.39-13.79,2.67-20.7,3.86.56,3.2,1.1,6.41,1.64,9.6,6.05-1.04,12.09-2.15,18.13-3.34l1.23,6.26c-6.08,1.2-12.17,2.33-18.28,3.37.59,3.46,1.19,6.92,1.77,10.39,7.36-1.26,14.69-2.63,22-4.1Z" fill="#fff"/>
    <path d="m400.8,70.9l-5.32-25.08c2.62-.56,5.26-1.13,7.89-1.72,1.88,8.33,3.75,16.66,5.61,25.01-2.74.62-5.45,1.2-8.18,1.79Zm3.17,14.88c-.6-2.8-1.2-5.61-1.79-8.41,2.76-.59,5.5-1.19,8.24-1.8l1.89,8.4c-2.79.62-5.56,1.17-8.34,1.82Z" fill="#fff"/>
    <g fill="none" opacity=".1">
      <path d="m35,11.84c.15,1.86,0,3.73-.48,5.54-.43,1.8-.97,3.57-1.61,5.31-1.25,3.47-2.87,6.8-4.85,9.91.97-3.58,2.24-7.01,3.49-10.44l1.88-5.12c.65-1.7,1.18-3.43,1.58-5.2Z"/>
      <path d="m36.47,13.05c.8,1.38,1.4,2.86,1.8,4.4.42,1.54.72,3.12.89,4.71.35,3.18.15,6.4-.6,9.51-.21-1.6-.29-3.15-.43-4.72s-.28-3.09-.43-4.63c-.32-3.06-.73-6.07-1.25-9.26Z"/>
      <path d="m39.94,11.84c1.12,1.19,2.33,2.3,3.61,3.33,1.24,1.01,2.57,1.91,3.96,2.71,1.41.81,2.88,1.51,4.4,2.1,1.47.63,3.06,1.07,4.66,1.61-1.69.09-3.38-.09-5.01-.53-3.37-.82-6.43-2.58-8.84-5.07-1.18-1.2-2.12-2.6-2.77-4.15Z"/>
    </g>
    <g fill="none" opacity=".1">
      <path d="m456.2,11.84c.41,1.77.93,3.52,1.58,5.22l1.89,5.04c1.25,3.43,2.51,6.86,3.47,10.44-1.97-3.12-3.6-6.45-4.85-9.92-.64-1.73-1.18-3.51-1.6-5.31-.48-1.78-.65-3.63-.5-5.47Z"/>
      <path d="m454.75,13.05c-.51,3.14-.92,6.2-1.25,9.29-.16,1.54-.31,3.08-.43,4.63s-.23,3.12-.44,4.72c-.75-3.11-.95-6.33-.6-9.51.17-1.59.47-3.16.89-4.71.4-1.55,1.01-3.04,1.82-4.43Z"/>
      <path d="m451.27,11.84c-.68,1.55-1.65,2.96-2.84,4.16-2.38,2.46-5.39,4.21-8.71,5.06-1.63.44-3.31.62-5,.53,1.6-.54,3.15-.98,4.65-1.61,2.99-1.18,5.78-2.81,8.3-4.81,1.28-1.02,2.48-2.14,3.61-3.33Z"/>
    </g>
    <path d="m39.94,11.84c0,1.92-1.56,3.47-3.47,3.47-1.92,0-3.47-1.56-3.47-3.47s1.56-3.47,3.47-3.47,3.47,1.56,3.47,3.47h0Z" fill="#263238"/>
    <path d="m457,11.84c0,1.92-1.56,3.47-3.47,3.47-1.92,0-3.47-1.56-3.47-3.47s1.56-3.47,3.47-3.47h0c1.92,0,3.47,1.56,3.47,3.47Z" fill="#263238"/>
  </g>
  <g id="freepik--Confetti--inject-65">
    <path d="m157.05,186.65c.29,1.98-1.07,3.83-3.05,4.13-1.97.24-3.76-1.16-4-3.13,0-.01,0-.02,0-.03-.27-1.98,1.09-3.82,3.06-4.13,1.97-.23,3.75,1.18,3.99,3.15,0,0,0,.01,0,.02Z" fill="#263238"/>
    <path d="m437.2,201.88c.28,1.98-1.08,3.82-3.06,4.13-1.96.24-3.74-1.16-3.98-3.12,0-.02,0-.03,0-.05-.28-1.98,1.08-3.82,3.05-4.13,1.98-.23,3.77,1.18,4,3.16,0,0,0,0,0,0Z" fill="#263238"/>
    <path d="m356.7,173.19c.13.99-.55,1.9-1.54,2.05-.97.13-1.86-.56-1.99-1.53,0-.01,0-.03,0-.04-.14-.97.5-1.88,1.47-2.07.97-.16,1.89.5,2.05,1.48,0,.04.01.07.01.11Z" fill="#2196f3"/>
    <path d="m133.6,173.19c.14.97-.5,1.87-1.47,2.05-.97.13-1.86-.56-1.99-1.53,0-.01,0-.03,0-.04-.14-.97.5-1.88,1.47-2.07.98-.12,1.87.58,1.99,1.56,0,0,0,.02,0,.02Z" fill="#2196f3"/>
    <path d="m399.75,57.18c.13.96-.51,1.87-1.47,2.05-.96.13-1.85-.54-1.99-1.5,0-.02,0-.05,0-.07-.15-.97.5-1.89,1.47-2.07.98-.12,1.87.58,1.99,1.56,0,0,0,.02,0,.02Z" fill="#263238"/>
    <path d="m305.83,289.27c.15.97-.5,1.89-1.47,2.07-.98.12-1.87-.58-1.99-1.56,0,0,0-.02,0-.02-.13-.96.51-1.87,1.47-2.05.96-.13,1.85.54,1.99,1.5,0,.02,0,.05,0,.07Z" fill="#263238"/>
    <path d="m276.25,30.52c.14.97-.5,1.88-1.47,2.07-.98.12-1.87-.58-1.99-1.56,0,0,0-.02,0-.02-.14-.97.5-1.88,1.47-2.07.98-.12,1.87.58,1.99,1.56,0,0,0,.02,0,.02Z" fill="#263238"/>
    <path d="m77.7,218.42c.14.97-.5,1.88-1.47,2.07-.98.12-1.87-.58-1.99-1.56,0,0,0-.02,0-.02-.14-.97.5-1.88,1.47-2.07.98-.12,1.87.58,1.99,1.56,0,0,0,.02,0,.02Z" fill="#2196f3"/>
    <path d="m380.84,363.64c.15.97-.5,1.89-1.47,2.07-.98.12-1.87-.58-1.99-1.56,0,0,0-.02,0-.02-.14-.99.55-1.92,1.54-2.07.96-.09,1.82.62,1.92,1.58Z" fill="#455a64"/>
    <path d="m139.72,331.94c.14.97-.5,1.88-1.47,2.07-.97.13-1.86-.56-1.99-1.53,0-.02,0-.04,0-.05-.15-.97.5-1.89,1.47-2.07.98-.12,1.87.58,1.99,1.56,0,0,0,.02,0,.02Z" fill="#2196f3"/>
    <path d="m164.99,261.34c.29,1.98-1.07,3.83-3.05,4.13-1.96.25-3.75-1.14-3.99-3.1,0-.02,0-.04,0-.06-.28-1.98,1.09-3.82,3.06-4.12,1.95-.25,3.73,1.14,3.98,3.09,0,.02,0,.04,0,.06Z" fill="#2196f3"/>
    <path d="m195.16,71.08c.28,1.94-1.01,3.76-2.93,4.13-1.97.23-3.75-1.18-3.99-3.15,0,0,0-.01,0-.02-.29-1.98,1.07-3.83,3.05-4.13,1.93-.16,3.65,1.24,3.87,3.17Z" fill="#455a64"/>
    <path d="m146.79,297.35c.28,1.98-1.08,3.82-3.06,4.13-1.95.25-3.73-1.14-3.98-3.09,0-.02,0-.04,0-.06-.29-1.98,1.07-3.83,3.05-4.13,1.96-.25,3.75,1.14,4,3.1,0,.02,0,.03,0,.05Z" fill="#455a64"/>
    <path d="m327.42,43.62c.29,1.98-1.07,3.82-3.05,4.12-1.95.25-3.73-1.14-3.98-3.09,0-.02,0-.04,0-.06-.29-1.98,1.07-3.83,3.05-4.13,1.95-.25,3.73,1.14,3.98,3.09,0,.03,0,.05,0,.08Z" fill="#263238"/>
    <path d="m324.52,163.09l5.04-1.74s-3.44-1.83-3.43-7.53c.01-5.7,4.71-7.94,2.67-13.09l-5.6,1.58c1.29,2.77,1.38,5.95.25,8.8-1.48,3.2-2.81,7.08,1.07,11.99Z" fill="#263238"/>
    <path d="m201.17,185.34l-4.97-1.99s1.55,3.66-1.92,8.08-8.49,3.09-10.06,8.43l5.31,2.45c.66-2.92,2.52-5.44,5.12-6.93,3.15-1.52,6.57-3.66,6.52-10.03Z" fill="#455a64"/>
    <path d="m86.28,282.86l-4.95-1.93s1.47,3.66-1.93,8.08-8.49,3.09-10.04,8.43l5.29,2.45c.66-2.92,2.52-5.44,5.12-6.93,3.15-1.6,6.57-3.74,6.52-10.08Z" fill="#263238"/>
    <path d="m467.31,272.76l-4.95-1.92s1.54,3.65-1.93,8.08c-3.47,4.43-8.49,3.09-10.04,8.41l5.29,2.46c.67-2.93,2.52-5.44,5.12-6.95,3.15-1.64,6.57-3.78,6.52-10.08Z" fill="#2196f3"/>
    <path d="m106.87,136.06l.72-5.44s-3.11,2.37-8.03-.15-4.79-7.9-10.16-8.3l-1.14,5.86c2.97.04,5.77,1.37,7.68,3.64,2.18,2.86,4.95,5.83,10.94,4.38Z" fill="#263238"/>
    <path d="m75.99,355.38l.72-5.44s-3.11,2.37-8.03-.15-4.79-7.89-10.16-8.3l-1.14,5.86c2.97.04,5.77,1.37,7.68,3.64,2.18,2.86,4.95,5.83,10.94,4.38Z" fill="#2196f3"/>
    <path d="m255.16,340.76l.72-5.44s-3.11,2.37-8.03-.15-4.79-7.89-10.16-8.3l-1.14,5.86c2.96.05,5.76,1.37,7.67,3.64,2.26,2.86,4.97,5.83,10.95,4.38Z" fill="#455a64"/>
    <path d="m468.98,149.85l.72-5.44s-3.09,2.37-8.03-.16-4.79-7.89-10.16-8.28l-1.13,5.86c2.96.05,5.76,1.37,7.67,3.64,2.18,2.86,4.95,5.82,10.94,4.38Z" fill="#2196f3"/>
    <path d="m150.78,361.71l1.01,5.39s2.2-3.28,7.65-2.52c5.45.76,6.98,5.86,12.18,4.47l-.75-5.97c-2.79.95-5.85.63-8.38-.88-2.95-1.96-6.49-3.86-11.71-.5Z" fill="#455a64"/>
    <path d="m239.55,249.31l-5.6-3.14s-4.51,7.07.92,10.63c0-.06-1.13-4.65,4.68-7.49Z" fill="#2196f3"/>
    <path d="m235.02,265.35l5.86-2.27s.34-5.22-6.02-6.33c.01,0,4,4.72.16,8.6Z" fill="#2196f3"/>
    <path d="m83.17,28.85l-5.58-3.14s-4.53,7.07.92,10.63c0,0-1.13-4.59,4.66-7.49Z" fill="#455a64"/>
    <path d="m78.66,44.94l5.86-2.27s.34-5.22-6.02-6.33c.01,0,4,4.72.16,8.6Z" fill="#455a64"/>
    <path d="m277.07,160.52c-.28-1.98,1.08-3.82,3.06-4.13,1.96-.24,3.74,1.16,3.98,3.12,0,.02,0,.03,0,.05.27,1.98-1.09,3.82-3.06,4.13-1.97.23-3.75-1.18-3.99-3.15,0,0,0-.01,0-.02Z" fill="#263238"/>
    <path d="m391.66,231.5c-.28-1.98,1.09-3.82,3.06-4.12,1.95-.25,3.73,1.14,3.98,3.09,0,.02,0,.04,0,.06.29,1.98-1.07,3.83-3.05,4.13-1.97.24-3.76-1.16-4-3.13,0-.01,0-.02,0-.03Z" fill="#2196f3"/>
    <path d="m316.83,360.36c-.28-1.98,1.08-3.82,3.06-4.13,1.96-.24,3.74,1.16,3.98,3.12,0,.02,0,.03,0,.05.28,1.98-1.08,3.82-3.05,4.13-1.98.23-3.77-1.18-4-3.16h0Z" fill="#2196f3"/>
    <path d="m20.32,300.13c-.15-.97.5-1.89,1.47-2.07.98-.12,1.87.58,1.99,1.56,0,0,0,.02,0,.02.13.99-.55,1.91-1.54,2.07-.97.09-1.82-.62-1.92-1.58Z" fill="#2196f3"/>
    <path d="m307.88,260.55c-.14-.97.5-1.88,1.47-2.07.98-.12,1.87.58,1.99,1.56,0,0,0,.02,0,.02.14.97-.5,1.88-1.47,2.07-.99.11-1.88-.6-1.99-1.58Z" fill="#2196f3"/>
    <path d="m259.82,113.27c-.14-.97.5-1.88,1.47-2.07.98-.12,1.87.58,1.99,1.56,0,0,0,.02,0,.02.14.97-.5,1.88-1.47,2.07-.98.12-1.87-.58-1.99-1.56,0,0,0-.02,0-.02Z" fill="#37474f"/>
    <path d="m393.93,129.8c-.28-1.98,1.08-3.82,3.06-4.13,1.96-.24,3.74,1.16,3.98,3.12,0,.02,0,.03,0,.05.28,1.98-1.09,3.82-3.06,4.12-1.96.24-3.74-1.16-3.98-3.12,0-.01,0-.02,0-.03Z" fill="#2196f3"/>
    <path d="m28.55,261.4c-.28-1.98,1.08-3.81,3.05-4.12,1.96-.25,3.75,1.14,4,3.1,0,.02,0,.03,0,.05.28,1.98-1.08,3.82-3.06,4.13-1.95.25-3.73-1.14-3.98-3.09,0-.03,0-.05,0-.08Z" fill="#455a64"/>
    <path d="m177.13,131.54l-8.47,2.49s-4.03-10.96,4.4-14.06c-.04,0-2.9,5.83,4.08,11.57Z" fill="#455a64"/>
    <path d="m175.74,108.41l7.33,4.9s-1.07,7.15-10,6.67c-.06,0,6.73-5.13,2.67-11.57Z" fill="#455a64"/>
    <path d="m447.97,341.99l-8.46,2.49s-4.03-10.96,4.4-14.06c-.04,0-2.9,5.83,4.06,11.57Z" fill="#455a64"/>
    <path d="m446.6,318.86l7.33,4.9s-1.07,7.15-10,6.67c-.06,0,6.71-5.13,2.67-11.57Z" fill="#455a64"/>
    <path d="m390.98,268.26l-1.14-9.04s11.05-2.54,12.78,6.51c0,0-5.17-3.77-11.64,2.54Z" fill="#263238"/>
    <path d="m413.29,270.2l-5.75,6.74s-6.68-2.14-4.93-11.21c0,0,3.93,7.7,10.67,4.47Z" fill="#263238"/>
    <path d="m185.82,329.7l-8.47,2.48s-4.03-10.95,4.4-14.04c-.03.07-2.89,5.83,4.08,11.57Z" fill="#263238"/>
    <path d="m184.45,306.55l7.33,4.91s-1.07,7.15-10,6.67c-.06.07,6.71-5.13,2.67-11.58Z" fill="#263238"/>
    <path d="m337.76,106.13l5.58,3.15s4.53-7.07-.91-10.63c0,0,1.11,4.59-4.68,7.48Z" fill="#455a64"/>
    <path d="m342.29,90.05l-5.86,2.26s-.35,5.22,6.02,6.35c-.01,0-4.02-4.72-.16-8.6Z" fill="#455a64"/>
    <path d="m327.72,287.76l.92,6.51s8.18-.5,7.65-7.14c0,0-2.86,3.68-8.58.63Z" fill="#2196f3"/>
    <path d="m342.86,281.84l-5.28-3.5s-4.24,2.84-1.29,8.8c0,0,1.26-6.16,6.57-5.29Z" fill="#2196f3"/>
  </g>
  <g id="freepik--character-2--inject-65">
    <path d="m170.33,424.94c16.72-1.7,33.46-3.37,50.23-4.52,1.31-5.75,4.74-19.41,9.09-36.52,1.6-6.27,3.33-13.02,5.12-19.99,4.84-18.87,10.19-39.47,14.83-57.43,6.98-26.87,12.42-47.76,12.42-47.76h-55.03s-6.41,20.33-14.5,46.79c-13.19,42.98-30.78,102.15-32.5,116.53-.11.92-.19,2.18-.25,3.72,3.53-.2,7.05-.46,10.59-.82Z" fill="#455a64"/>
    <path d="m212.3,421.02v-.65c.15-.75.23-1.47.4-2.24.6-2.93,1.33-5.98,2.02-8.97,5.78-23.94,12.21-47.71,18.47-71.53l18.84-71.44-10.1,35.55-9.84,35.62c-3.28,11.87-6.45,23.78-9.62,35.68-3.17,11.9-6.27,23.82-9.18,35.8-.7,3.02-1.47,6.01-2.01,9.06-.16.75-.26,1.54-.4,2.3,0,.31-.03.64-.02.96.47-.04.95-.08,1.42-.12Z" fill="#263238"/>
    <path d="m208.35,258.72c3.83,29.55,17.59,78.66,22.96,118.86,12.42-48.71,30.78-118.86,30.78-118.86h-53.74Z" fill="#263238"/>
    <path d="m225.97,315.27l9.16,104.31c1.17-.06,2.35-.12,3.52-.17,18.96-.79,38.81-.87,58.5.86l-17.59-161.59-71.21.04s8.36,50.86,8.91,52.49c0,0,3.11,1.47,8.71,4.06Z" fill="#455a64"/>
    <path d="m214.51,309.64c6.49,2.71,12.73,5.97,18.66,9.76.1.08.11.21.04.31-.06.07-.15.1-.24.07-6.29-3.05-12.71-6-18.84-9.4-.19-.14-.23-.4-.09-.59.11-.15.3-.21.47-.15Z" fill="#263238"/>
    <path d="m216.91,280.5c1.03,6.08,1.6,12.27,2.29,18.4.16,1.47.34,2.93.5,4.4.04,1.36.4,2.68,1.06,3.87,1.32,2.05,3.69,3.02,5.86,3.96.25.1.15.5-.12.41-2.31-.56-4.44-1.68-6.2-3.28-1.96-2.07-1.91-5.2-2.2-7.86-.88-6.59-1.37-13.23-1.47-19.88.02-.08.1-.12.18-.1.05.01.08.05.1.09Z" fill="#263238"/>
    <path d="m224.32,282.36c.22,4.4.7,8.8,1.07,13.19.18,2.15.34,4.32.47,6.48s.38,4.4.31,6.65c0,.15-.23.19-.26,0-.35-2.08-.41-4.25-.59-6.35s-.32-4.4-.45-6.65c-.25-4.4-.37-8.9-.76-13.31-.01-.15.21-.15.22-.01Z" fill="#263238"/>
    <path d="m234.39,381.45l4.78,37.93c.43-.02.85-.03,1.28-.05l-4.99-38.01-4.03-29.77-4.16-29.77,3.49,29.86,3.64,29.82Z" fill="#263238"/>
    <path d="m225.14,189.12c-8.5,11.58-35.18,46.76-52.87,49.15-11.65,1.58-49.05-1.36-58.47-5.06-3.9-1.54,6.98-37.16,11.61-36.65,8.59.84,41.18,8.97,46.14,7.84,4.4-1.01,18.88-11.83,44.72-26.3,13.27-7.51,16.2,1.01,8.87,11.01Z" fill="#ffc4c0"/>
    <path d="m116.23,233.71c-4.02.19-22.47-.59-27.56-1.95-5.09-1.36-19.45-6.35-18.81-10.35s4.97-2.93,4.97-2.93c0,0-5.73-3.06-4.72-7.04s7.7-1.99,7.7-1.99c0,0-5.66-3.58-4.4-7.46s7.67-.79,7.67-.79c0,0-5.32-3.03-2.93-5.86,2.93-3.3,12.09,3.39,17.82,4.47,1.3.25,26.74,3.11,26.74,3.11l-6.48,30.8Z" fill="#ffc4c0"/>
    <path d="m80.56,200.94c6.77,4.9,10.58,5.86,18.79,6.41.16,0,.18.25,0,.25-8.09.22-13.05-.32-19.06-6.35-.28-.23-.06-.48.26-.31Z" fill="#263238"/>
    <path d="m77.28,209.1c7.46,4.47,11.59,5.57,20.14,6.76.06.02.09.09.07.15-.01.03-.04.06-.07.07-8.49-.47-13.43-1.11-20.3-6.57-.32-.25-.19-.62.16-.41Z" fill="#263238"/>
    <path d="m75.27,218.53c7.55,3.81,12.01,5.2,20.52,5.29.09.03.13.12.11.2-.02.05-.06.09-.11.11-7.28.97-14.65-.95-20.52-5.36-.53-.23-.48-.43,0-.23Z" fill="#263238"/>
    <path d="m125.4,196.54s-8.8-5.75-13.19-7.42-23.12-1.85-23.45,2.18c-.34,5.22,10.44,7.45,15.86,7.86,0,0-.82,12.06,6.57,15.33s14.22-17.96,14.22-17.96Z" fill="#ffc4c0"/>
    <path d="m89.23,192.74c3.11,4.98,10.26,5.06,15.49,5.86.27.03.46.27.43.54,0,.05-.02.1-.04.15,0,5.09,1.47,12.24,5.86,15.32.06.03.08.1.04.16s-.1.08-.16.04h0c-5.16-2.65-7.18-9.57-6.82-15.13-5.38-.73-12.55-1.11-14.85-6.9-.01-.04.03-.07.04-.04Z" fill="#263238"/>
    <path d="m189.06,191.58l22.5,22.97s14.66-15.49,21.39-30.78c6.73-15.29-6.9-14.31-16.89-8.62-9.98,5.69-27,16.43-27,16.43Z" fill="#2196f3"/>
    <path d="m232.44,184.92c-.12.26-.25.53-.38.79h-1.47c-.22-.01-.45-.01-.67,0-.52.04-1.03.12-1.54.22h0c-.74.14-1.47.32-2.18.56-2.27.74-4.44,1.76-6.46,3.02l-.43.25c-.43.25-.84.51-1.25.78-5.1,3.36-9.78,7.33-14.73,11.01-.86.63-1.73,1.26-2.61,1.86l-.41-.43c.89-.63,1.77-1.28,2.65-1.93,4.9-3.66,9.53-7.72,14.66-11.14.37-.23.75-.48,1.13-.7.13-.09.27-.17.41-.25,2.12-1.34,4.39-2.42,6.77-3.21,1.24-.41,2.52-.69,3.83-.84l.76-.07h1.19l.73.09Zm-7.43,9.56c-1.01-.84-1.99-1.7-2.93-2.61l-.48-.45-1.8-1.77-.54-.56-.89-.91c-2.93-3.03-5.7-6.22-8.55-9.34l-.29.18c2.81,3.17,5.58,6.38,8.5,9.47l.82.85c.16.19.34.37.53.56.6.62,1.2,1.23,1.83,1.83l.48.45c.97.94,1.96,1.85,2.93,2.71.48.4.97.79,1.47,1.17l.31-.45c-.44-.37-.91-.75-1.38-1.13h0Zm7.53-11.33c-.92.62-1.82,1.23-2.71,1.89-.47.32-.94.67-1.47,1.03h0c-2.33,1.74-4.57,3.56-6.85,5.35l-.4.31c-1.1.88-2.21,1.74-3.33,2.58-4.77,3.84-10.14,6.87-15.9,8.96l-1.13.34.34.34c.31-.07.62-.16.92-.26,5.83-2.05,11.28-5.05,16.12-8.88,1.16-.85,2.3-1.72,3.44-2.61l.4-.31c2.62-2.02,5.23-4.1,7.92-6.02.43-.32.85-.62,1.29-.91l1.69-1.16c.18-.41.34-.81.48-1.19-.23.18-.53.37-.82.56h0Z" fill="#fff"/>
    <path d="m214.55,209.56c-6.74-6.29-13.08-13-18.98-20.08-.09-.07,0-.21.15-.12,1.6,1.86,11.57,11.58,19.06,20.07.03.1-.12.22-.22.13Z" fill="#263238"/>
    <path d="m232.95,183.77c-6.67,15.29-21.39,30.78-21.39,30.78l-10.36-10.58c7.97-9.62,20.83-25.12,27.22-32.63,5.32.01,8.5,3.37,4.53,12.43Z" fill="#263238"/>
    <path d="m196.17,284.87c1.47,1.47,89.68,4.4,90.13,3.86,1.26-1.47-9.84-59.03-19.06-81.05-11.83-28.23-18.6-30.78-22.65-32.54-5.16-2.2-18.92-1.96-21.21-1.04-2.59,1.04-9.63,13.69-13.09,23.83-6.98,20.36-15.36,85.6-14.13,86.94Z" fill="#2196f3"/>
    <path d="m280.97,257.09c-4.4,3.11-8.65,6.63-13.05,9.87-.91.67-1.82,1.33-2.76,1.96l-.98.69c-3.82,2.65-7.99,4.75-12.4,6.23-2.95.95-6.03,1.44-9.13,1.47-3.11-.06-6.16-.81-8.94-2.2-2.76-1.37-5.34-3.09-7.67-5.12-2.33-2-4.56-4.12-6.68-6.35-4.25-4.4-8.21-9.16-12.46-13.59l-.89-.91-.54-.56c-1.47-1.47-3.03-2.93-4.66-4.4,0-.21.07-.41.1-.62,1.74,1.48,3.41,3.05,4.98,4.71.19.19.37.37.53.56l.82.85c4.22,4.47,8.14,9.22,12.34,13.68s8.8,8.8,14.26,11.4c2.74,1.34,5.74,2.06,8.8,2.1,3.06-.02,6.09-.52,9-1.47,3.9-1.31,7.6-3.16,10.99-5.5l.89-.59c1.36-.92,2.7-1.89,4.02-2.93,4.4-3.31,8.65-6.96,13.19-10.14.13.4.18.59.23.85Zm-1.66-7.48c-2.93-3.25-5.86-6.55-8.88-9.73-2.12-2.24-4.35-4.36-6.68-6.36-2.33-2.02-4.9-3.74-7.67-5.12-2.78-1.39-5.83-2.14-8.94-2.2-3.1.02-6.18.51-9.13,1.47-5.83,2.05-11.28,5.05-16.12,8.88-1.16.85-2.3,1.72-3.44,2.61-.14.09-.27.2-.4.31-3.59,2.77-7.12,5.6-10.89,8.08-.41.26-.82.53-1.25.78l-.43.25c-1.8,1.12-3.71,2.04-5.7,2.76l-.13.88c2.24-.77,4.38-1.8,6.38-3.08.14-.07.28-.16.41-.25.38-.22.76-.47,1.13-.7,3.84-2.54,7.33-5.42,10.96-8.25l.4-.31c1.1-.88,2.21-1.74,3.33-2.58,4.77-3.85,10.14-6.88,15.9-8.96,2.91-.95,5.94-1.44,9-1.47,3.05.04,6.06.75,8.8,2.1,5.54,2.65,10.07,6.96,14.26,11.4,3.18,3.37,6.19,6.9,9.29,10.35-.07-.31-.13-.59-.19-.85h0Zm2.33,10.54c-4.55,3.6-9.66,6.43-15.13,8.38-.44.15-.88.28-1.33.38-.54.16-1.08.29-1.63.41-1.98.44-4.01.67-6.04.69-3.05-.04-6.05-.76-8.8-2.1-5.53-2.65-10.07-6.96-14.26-11.4s-8.12-9.21-12.34-13.69c-1.04-1.1-2.1-2.18-3.18-3.22-.16-.16-.32-.32-.48-.45-.97-.95-1.96-1.85-3-2.71-2.34-2.03-4.93-3.75-7.71-5.12-1.45-.7-2.96-1.23-4.53-1.58,0,.21-.07.41-.12.63,1.51.33,2.99.82,4.4,1.47,2.75,1.32,5.32,2.99,7.64,4.97,1.01.84,1.99,1.7,2.93,2.61l.48.45c1.1,1.06,2.18,2.14,3.24,3.24,4.25,4.4,8.21,9.13,12.46,13.57,2.11,2.23,4.34,4.35,6.68,6.35,2.32,2.03,4.9,3.76,7.67,5.13,2.78,1.38,5.84,2.13,8.94,2.18,1.73.01,3.45-.14,5.15-.47.51-.07,1.03-.19,1.47-.31.82-.19,1.64-.41,2.45-.66,5.45-1.88,10.56-4.63,15.13-8.15l-.07-.6Zm-17.59-59.91c-.31.02-.63.02-.94,0-1.49-.1-2.95-.46-4.31-1.08-.41-.18-.8-.38-1.19-.6-.24-.12-.47-.25-.69-.4-1.94-1.27-3.77-2.7-5.45-4.29-2.26-2.12-4.71-4.03-7.33-5.69-2.69-1.62-5.68-2.66-8.8-3.05-.77-.11-1.55-.17-2.33-.19h-2.36l-.76.07c-1.3.14-2.58.42-3.83.84-2.38.79-4.65,1.87-6.77,3.21-.14.07-.28.16-.41.25-.38.22-.76.47-1.13.7-2.1,1.39-4.12,2.93-6.1,4.4-.18.43-.34.86-.5,1.29,2.29-1.77,4.6-3.5,7.01-5.09.41-.26.82-.53,1.25-.78l.43-.25c2.03-1.26,4.2-2.28,6.46-3.02.71-.24,1.44-.42,2.18-.56h0c.51-.1,1.02-.18,1.54-.22.22-.01.45-.01.67,0,1.51-.1,3.02-.04,4.51.18,3,.4,5.88,1.4,8.49,2.93,2.57,1.63,4.98,3.5,7.2,5.58,1.58,1.47,3.27,2.82,5.06,4.03.22.16.44.3.67.43.59.37,1.2.69,1.83.97,1.45.65,3,1.04,4.59,1.14.45.04.9.04,1.35,0-.19-.29-.35-.56-.35-.81Zm-2.07-4.29c-1.67.79-3.36,1.52-5.06,2.2l-.95.35c-1.79.67-3.61,1.24-5.47,1.69-2.96.74-5.98,1.14-9.03,1.2-3.04.04-6.05-.63-8.8-1.95-2.74-1.32-5.3-2.99-7.62-4.97-1.01-.84-1.99-1.7-2.93-2.61l-.48-.45-1.8-1.77-.54-.56-.89-.91c-.89-.92-1.77-1.86-2.62-2.81-.07.13-.13.26-.21.41.82.91,1.64,1.82,2.49,2.71l.82.85c.16.19.34.37.53.56.6.62,1.2,1.23,1.83,1.83l.48.45c.97.94,1.96,1.85,2.93,2.71,2.35,2.02,4.94,3.74,7.72,5.1,2.81,1.39,5.91,2.1,9.04,2.08,3.1-.03,6.19-.43,9.19-1.2,2.03-.52,4.02-1.16,5.97-1.93l.97-.38c1.57-.63,3.11-1.33,4.63-2.07-.08-.18-.17-.36-.28-.53h.07Zm-12.12-17.75c-.66-.07-1.33-.13-1.99-.16h-2.36c-1.56.12-3.1.43-4.59.92-2.94,1-5.74,2.4-8.31,4.15-.92.62-1.82,1.23-2.71,1.89-.47.32-.94.67-1.47,1.03h0c-2.33,1.74-4.57,3.56-6.85,5.35l-.4.31c-1.1.88-2.21,1.74-3.33,2.58-2.6,1.99-5.32,3.82-8.15,5.47,0,.23-.13.47-.21.7,3.03-1.7,5.94-3.6,8.72-5.69,1.16-.85,2.3-1.72,3.44-2.61l.4-.31c2.62-2.02,5.23-4.1,7.92-6.02.43-.32.85-.62,1.29-.91l1.69-1.16c2.52-1.7,5.26-3.06,8.14-4.03,1.42-.47,2.9-.76,4.4-.86,1.51-.08,3.02-.02,4.51.19l.89.15c-.35-.35-.73-.68-1.11-.98h.07Z" fill="#fff"/>
    <path d="m248.8,187.95c8.8,11.36,36.4,45.87,54.1,47.8,11.73,1.28,48.99-2.62,58.31-6.57,3.86-1.63-7.92-36.95-12.53-36.38-8.56,1.06-40.94,10.03-45.94,9.01-4.4-.91-19.17-11.35-45.37-25.15-13.46-7.11-16.17,1.48-8.58,11.29Z" fill="#ffc4c0"/>
    <path d="m358.79,229.76c4.02.09,22.46-1.16,27.51-2.64s19.28-6.85,18.53-10.83-5.04-2.76-5.04-2.76c0,0,5.66-3.21,4.53-7.15-1.13-3.94-7.72-1.8-7.72-1.8,0,0,5.56-3.72,4.16-7.58s-7.7-.59-7.7-.59c0,0,5.25-3.17,2.76-5.86-2.93-3.22-12.01,3.69-17.71,4.93-1.29.28-26.65,3.8-26.65,3.8l7.33,30.49Z" fill="#ffc4c0"/>
    <path d="m393.61,196.13c-6.64,5.09-10.42,6.16-18.62,6.89-.16,0-.18.26,0,.26,8.09,0,13.03-.66,18.88-6.83.29-.31.06-.56-.26-.32Z" fill="#263238"/>
    <path d="m397.11,204.16c-7.33,4.66-11.45,5.86-19.98,7.33-.12,0-.09.22,0,.22,8.47-.67,13.4-1.47,20.13-7.09.34-.31.19-.67-.15-.45Z" fill="#263238"/>
    <path d="m399.35,213.59c-7.45,4-11.87,5.51-20.33,5.86-.08.03-.13.12-.11.2.02.05.06.09.11.11,8.65.53,14.19-1.3,20.43-5.86.43-.38.37-.56-.1-.31Z" fill="#263238"/>
    <path d="m348.68,192.8s8.6-5.97,12.97-7.74,23.06-2.45,23.45,1.58c.48,5.2-10.26,7.71-15.64,8.25,0,0,1.13,12.03-6.19,15.49s-14.6-17.59-14.6-17.59Z" fill="#ffc4c0"/>
    <path d="m384.75,188.11c-2.93,5.07-10.14,5.32-15.35,6.24-.26.03-.45.28-.42.54,0,.06.02.11.05.16.13,5.07-1.16,12.27-5.47,15.45-.06.03-.08.1-.04.16.03.06.1.08.16.04,5.1-2.77,6.95-9.75,6.44-15.3,5.36-.85,12.52-1.47,14.66-7.33.03.03-.01,0-.03.03Z" fill="#263238"/>
    <path d="m284.91,189.49l-21.99,23.54s-15.1-15.11-22.16-30.23c-7.07-15.11,6.54-14.48,16.67-9.04,10.13,5.44,27.48,15.73,27.48,15.73Z" fill="#2196f3"/>
    <path d="m280.18,186.67c-2.93,1.38-5.86,2.93-8.71,4.4.16.12.32.22.5.31,2.86-1.54,5.73-3.08,8.66-4.4l-.45-.31Zm1.67.98l-.35.35c-1.74,1.73-3.49,3.46-5.31,5.1.26.07.53.12.81.15,1.69-1.57,3.3-3.21,4.91-4.85l.44-.45-.5-.29Zm-6.38,6.11c-.21.21-.41.38-.63.57-2.22,2.07-4.74,3.81-7.46,5.15l-1.04.38c-.35.13-.72.18-1.07.28-.73.12-1.46.15-2.2.09-1.49-.1-2.95-.46-4.31-1.08-.41-.18-.8-.38-1.19-.6l-.97.38c.59.37,1.2.69,1.83.97,1.45.65,3,1.04,4.59,1.14.8.05,1.6,0,2.39-.13.38-.1.78-.16,1.16-.29l1.11-.43c2.78-1.4,5.34-3.2,7.59-5.35l.97-.89c-.27-.04-.54-.1-.81-.18h.03Z" fill="#fff"/>
    <path d="m281.91,192.71l-1.08,1.17-.59.15c-.79.14-1.59.18-2.39.12-.55-.03-1.09-.1-1.63-.21-.26-.04-.52-.1-.78-.18-.75-.19-1.48-.45-2.18-.76-.74-.33-1.46-.72-2.15-1.14l-.5-.32c-1.72-1.2-3.37-2.52-4.91-3.94-2.21-2.1-4.62-3.97-7.2-5.58-2.6-1.54-5.49-2.54-8.49-2.93-1.5-.21-3.01-.27-4.51-.19-1.5.11-2.97.4-4.4.86-.44.13-.89.29-1.32.45-.09-.25-.18-.5-.23-.73.44-.18.88-.34,1.32-.47,1.49-.5,3.03-.81,4.59-.92h2.36c.78,0,1.55.1,2.33.19,3.11.4,6.11,1.45,8.79,3.06,2.62,1.65,5.08,3.56,7.33,5.69,1.61,1.51,3.34,2.89,5.17,4.12h0c.16.12.32.22.5.31.53.33,1.08.61,1.64.86.83.37,1.69.65,2.58.84.26.07.53.12.81.15.31.06.61.09.92.1.73.05,1.47.02,2.2-.1.35-.09.72-.15,1.07-.26l.75-.32Z" fill="#fff"/>
    <path d="m271.11,191.86l-3.47,1.86c-3.28,1.73-6.63,3.42-10.08,4.82l-.97.38c-1.48.57-2.99,1.06-4.51,1.47-.16-.19-.31-.4-.45-.59,1.46-.37,2.89-.83,4.29-1.36-1.79-1.21-3.48-2.56-5.06-4.03-2.03-1.89-4.21-3.62-6.51-5.16-.29-.48-.59-.98-.86-1.47l.6.34c2.62,1.66,5.07,3.56,7.33,5.69,1.69,1.59,3.51,3.03,5.45,4.29,3.59-1.45,7.09-3.09,10.51-4.91l3.24-1.7.5.37Z" fill="#fff"/>
    <path d="m259.88,208.1c6.58-6.45,12.74-13.3,18.47-20.52.09-.09-.07-.21-.15-.1-1.47,1.89-11.26,11.86-18.48,20.52-.06.09.07.26.16.1Z" fill="#263238"/>
    <path d="m266.58,209.17c-1.08,1.39-2.18,2.76-3.34,4.08l-.22.26-.25-.26c-3.05-3.08-5.94-6.32-8.68-9.67-1.38-1.67-2.71-3.37-3.96-5.15-1.3-1.74-2.47-3.57-3.5-5.48,2.65,3.42,5.5,6.65,8.28,9.95l4.19,4.94,4.13,4.97h-.47c1.29-1.25,2.52-2.45,3.81-3.64Z" fill="#263238"/>
    <path d="m247.58,197.42c.86.39,1.66.89,2.4,1.47.77.52,1.48,1.11,2.14,1.76-.93-.21-1.8-.61-2.57-1.17-.78-.55-1.45-1.25-1.98-2.05Z" fill="#263238"/>
    <path d="m227.32,188.33c4.84,1.67,14.13-5.04,18.12-10.85.28-.4,0-4.91.1-10.39,0-3.33.13-7.04.48-10.42.07-.69-21.71,2.93-21.71,2.93.78,4.35,1.03,8.78.73,13.19-.05.46-.15.92-.29,1.36,0,.08,0,.16,0,.23-.75,2.62-2.13,12.31,2.57,13.94Z" fill="#ffc4c0"/>
    <path d="m244.71,156.62c-1.55,5.61-6.51,19.06-17.84,18.15-.73-.05-1.45-.16-2.15-.34-.01-.08-.01-.16,0-.23.13-.45.22-.9.28-1.36.3-4.41.06-8.84-.72-13.19,0,0,15.76-2.68,20.43-3.02Z" fill="#263238"/>
    <path d="m248.43,129.55c2.57,7.46-.62,29.32-5.86,34.43-7.52,7.33-20.23,8.46-26.55-.66-6.13-8.8-1.47-37.36,4.4-42,8.62-6.87,24.2-2.8,28.01,8.22Z" fill="#ffc4c0"/>
    <path d="m231.06,143.07s.1.09.09.15c-.25,1.47-.29,3.21.97,3.88,0,0,0,.09,0,0-1.63-.4-1.54-2.67-1.06-4.03Z" fill="#263238"/>
    <path d="m232.58,141.72c2.4.15,1.92,4.94-.31,4.79s-1.7-4.93.31-4.79Z" fill="#263238"/>
    <path d="m222.53,142.2s-.13,0-.13.12c-.1,1.47-.47,3.18-1.86,3.53v.09c1.66-.06,2.13-2.32,1.99-3.74Z" fill="#263238"/>
    <path d="m221.36,140.52c-2.37-.43-3.05,4.4-.85,4.73s2.83-4.41.85-4.73Z" fill="#263238"/>
    <path d="m234.74,139.71c-.64-.23-1.19-.54-1.8-.84-.67-.21-1.25-.64-1.66-1.22-.19-.42-.07-.92.29-1.2.79-.47,1.76-.47,2.55,0,.86.34,1.56.98,1.96,1.8.23.55-.02,1.19-.57,1.42-.25.1-.52.11-.78.03Z" fill="#263238"/>
    <path d="m219.74,137.91c.65-.06,1.31-.16,1.95-.29.7-.01,1.38-.26,1.93-.69.31-.35.34-.86.07-1.25-.63-.67-1.57-.94-2.46-.72-.91.08-1.76.5-2.39,1.17-.38.46-.32,1.15.15,1.53.21.17.48.26.75.25Z" fill="#263238"/>
    <path d="m230.44,156.96c-.4.32-.81.76-1.35.75-.55-.07-1.08-.25-1.55-.53,0,0-.1,0-.07,0,.37.64,1.06,1.03,1.8,1,.64-.09,1.15-.56,1.3-1.19.03-.03-.09-.03-.13-.03Z" fill="#263238"/>
    <path d="m229.33,152.37c-.88,1.11-2.19,1.8-3.61,1.91-.61.06-1.23.03-1.83-.09-.12-.01-.23-.04-.34-.09l-.32-.07c-.16-.05-.27-.2-.26-.37h0s0-.1,0-.15h0v-.13c.09-1.14.37-2.93.37-2.93-.43.18-2.65.91-2.57.32.66-5.14,1.83-10.21,3.5-15.11,0-.15.31-.09.28.07-.59,4.75-1.99,9.37-2.65,14.15.79-.28,1.62-.44,2.46-.48.16,0-.62,3.33-.6,3.84h0c1.87.38,3.82-.02,5.39-1.1.16.01.28.13.18.23Z" fill="#263238"/>
    <path d="m224.61,153.75c.58.86,1.38,1.55,2.32,2.01.51.24,1.08.31,1.63.21,1.22-.25,1.3-1.33,1.14-2.29-.09-.5-.25-1-.45-1.47-1.34.99-2.96,1.53-4.63,1.54Z" fill="#263238"/>
    <path d="m226.93,155.76c.51.24,1.08.31,1.63.21,1.22-.25,1.3-1.33,1.14-2.29-1.3-.04-2.44.83-2.77,2.08Z" fill="#ff9bbc"/>
    <path d="m250.86,146.41c-5.86.6-9.12-6.29-7.92-11.95,0,0-15.51,2.54-16.62-9.94-2.13,3.49-5.87,5.69-9.95,5.86l-1.6,4.66c-1.61-.41-3.46-4.9.34-8.58.16-3.83,1.8-7.45,4.56-10.11,2.47-2.27,6.03-2.89,9.12-1.57,2.65-2.04,6-2.97,9.32-2.59,3.52.45,6.61,2.58,8.28,5.72,0,0,7.75,1.25,9.23,6.68.91,3.1.46,6.45-1.25,9.19,0,0,2.01,2.1,1.17,6.8-.5,3.06-2.89,5.64-4.69,5.82Z" fill="#263238"/>
    <path d="m226.68,123.39c-.11,1.01-.11,2.04,0,3.05.1,1,.31,1.98.64,2.93.65,1.89,1.99,3.46,3.75,4.4,1.8.88,3.78,1.31,5.78,1.28,1.01-.07,2.04,0,3.05-.18s2.01-.29,3.03-.4c-.98.26-1.99.5-2.93.75s-2.05.25-3.08.38c-2.11.12-4.22-.29-6.14-1.19-1.88-1.04-3.29-2.78-3.91-4.84-.58-2.01-.65-4.14-.19-6.19Z" fill="#263238"/>
    <path d="m218.86,130.87c1.69-.63,3.26-1.55,4.65-2.7.68-.57,1.27-1.22,1.77-1.95.49-.76.91-1.56,1.23-2.4-.06.94-.32,1.85-.76,2.68-.44.85-1.04,1.61-1.77,2.23-.72.61-1.53,1.1-2.4,1.47-.86.37-1.78.6-2.71.67Z" fill="#263238"/>
    <path d="m244.41,147.48s4.81-7.14,8.05-5.42c3.24,1.72-.32,11.98-4.05,13.44-1.92.9-4.21.07-5.1-1.86-.02-.04-.04-.08-.06-.12l1.16-6.04Z" fill="#ffc4c0"/>
    <path d="m251.36,145.07c-2.62,1.11-3.96,3.58-4.9,6.11.57-1.02,1.86-1.37,2.88-.8.1.05.19.12.28.19,0,0,0,.15,0,.13-.95-.28-1.98.06-2.57.86-.48.66-.89,1.36-1.22,2.11-.12.23-.54.12-.45-.15h0c-.15-3.43,2.39-8.16,5.98-8.56v.1Z" fill="#263238"/>
  </g>
</svg>